<svg xmlns="http://www.w3.org/2000/svg" width="470" height="83" viewBox="0 0 470 83">
  <g id="Group_13" data-name="Group 13" transform="translate(-975 -4141)">
    <g id="Group_12" data-name="Group 12">
      <rect id="Rectangle_18" data-name="Rectangle 18" width="470" height="83" transform="translate(975 4141)" fill="#de0e0b"/>
    </g>
    <text id="_30_123-456-7890" data-name="+30 123-456-7890" transform="translate(1088 4195)" fill="#fff" font-size="32" font-family="OpenSans-Extrabold, Open Sans" font-weight="800" letter-spacing="0.095em"><tspan x="0" y="0">+30 123-456-7890</tspan></text>
    <rect id="Rectangle_19" data-name="Rectangle 19" width="80" height="83" transform="translate(975 4141)" fill="#fff"/>
    <g id="phone-receiver" transform="translate(999.106 4165.74)">
      <g id="Group_5" data-name="Group 5" transform="translate(0 0.188)">
        <path id="Path_14" data-name="Path 14" d="M31.879,25.342a1.542,1.542,0,0,1-.473,1.351L26.916,31.15a2.527,2.527,0,0,1-.793.574,3.279,3.279,0,0,1-.962.3q-.034,0-.2.017t-.439.017a15.565,15.565,0,0,1-2.077-.22,15.77,15.77,0,0,1-3.511-1.08,29.475,29.475,0,0,1-4.71-2.583,35.118,35.118,0,0,1-5.6-4.727A37,37,0,0,1,4.7,18.995a31.755,31.755,0,0,1-2.5-3.934A21.186,21.186,0,0,1,.782,11.786,17.376,17.376,0,0,1,.141,9.254,8.363,8.363,0,0,1,.006,7.582q.034-.608.034-.675a3.282,3.282,0,0,1,.3-.962,2.53,2.53,0,0,1,.574-.793L5.408.661A1.487,1.487,0,0,1,6.488.188a1.26,1.26,0,0,1,.777.253,2.347,2.347,0,0,1,.574.625L11.452,7.92A1.643,1.643,0,0,1,11.621,9.1a2.1,2.1,0,0,1-.574,1.08L9.392,11.837a.563.563,0,0,0-.118.219.833.833,0,0,0-.051.253,6.1,6.1,0,0,0,.608,1.621,14.877,14.877,0,0,0,1.249,1.975,21.931,21.931,0,0,0,2.4,2.684A22.365,22.365,0,0,0,16.179,21a15.6,15.6,0,0,0,1.975,1.266,5.25,5.25,0,0,0,1.215.489l.422.084a.8.8,0,0,0,.22-.051.564.564,0,0,0,.22-.118l1.925-1.958a2.068,2.068,0,0,1,1.418-.54,1.764,1.764,0,0,1,.912.2h.034l6.516,3.849A1.7,1.7,0,0,1,31.879,25.342Z" transform="translate(0 -0.188)" fill="#151515"/>
      </g>
    </g>
  </g>
</svg>
